<mxfile>
    <diagram id="nP-OY_wl-n511qJIP8V6" name="Page-1">
        <mxGraphModel dx="2930" dy="2018" grid="1" gridSize="10" guides="1" tooltips="1" connect="1" arrows="1" fold="1" page="1" pageScale="1" pageWidth="1169" pageHeight="827" math="1" shadow="0">
            <root>
                <mxCell id="0"/>
                <mxCell id="1" parent="0"/>
                <mxCell id="2" value="" style="edgeStyle=none;rounded=0;jumpStyle=none;html=1;shadow=0;labelBackgroundColor=none;startArrow=none;startFill=0;endArrow=classic;endFill=1;jettySize=auto;orthogonalLoop=1;strokeColor=#2F5B7C;strokeWidth=3;fontFamily=Helvetica;fontSize=16;fontColor=#23445D;spacing=5;" parent="1" source="5" target="10" edge="1">
                    <mxGeometry relative="1" as="geometry"/>
                </mxCell>
                <mxCell id="3" value="" style="edgeStyle=none;rounded=0;jumpStyle=none;html=1;shadow=0;labelBackgroundColor=none;startArrow=none;startFill=0;endArrow=classic;endFill=1;jettySize=auto;orthogonalLoop=1;strokeColor=#2F5B7C;strokeWidth=3;fontFamily=Helvetica;fontSize=16;fontColor=#23445D;spacing=5;" parent="1" source="5" target="12" edge="1">
                    <mxGeometry relative="1" as="geometry"/>
                </mxCell>
                <mxCell id="4" value="" style="edgeStyle=none;rounded=0;jumpStyle=none;html=1;shadow=0;labelBackgroundColor=none;startArrow=none;startFill=0;endArrow=classic;endFill=1;jettySize=auto;orthogonalLoop=1;strokeColor=#2F5B7C;strokeWidth=3;fontFamily=Helvetica;fontSize=16;fontColor=#23445D;spacing=5;" parent="1" source="5" target="9" edge="1">
                    <mxGeometry relative="1" as="geometry"/>
                </mxCell>
                <mxCell id="5" value="Capacitor" style="rounded=1;whiteSpace=wrap;html=1;shadow=0;labelBackgroundColor=none;strokeColor=none;strokeWidth=3;fillColor=#2F5B7C;fontFamily=Helvetica;fontSize=16;fontColor=#FFFFFF;align=center;fontStyle=1;spacing=5;arcSize=7;perimeterSpacing=2;" parent="1" vertex="1">
                    <mxGeometry x="1082" y="810" width="150" height="70" as="geometry"/>
                </mxCell>
                <mxCell id="6" value="" style="edgeStyle=none;rounded=1;jumpStyle=none;html=1;shadow=0;labelBackgroundColor=none;startArrow=none;startFill=0;jettySize=auto;orthogonalLoop=1;strokeColor=#E85642;strokeWidth=3;fontFamily=Helvetica;fontSize=14;fontColor=#FFFFFF;spacing=5;fontStyle=1;fillColor=#b0e3e6;entryX=1;entryY=0.5;entryDx=0;entryDy=0;" parent="1" source="9" target="25" edge="1">
                    <mxGeometry relative="1" as="geometry">
                        <mxPoint x="763.6412213740459" y="746" as="targetPoint"/>
                    </mxGeometry>
                </mxCell>
                <mxCell id="9" value="Circuits" style="rounded=1;whiteSpace=wrap;html=1;shadow=0;labelBackgroundColor=none;strokeColor=none;strokeWidth=3;fillColor=#e85642;fontFamily=Helvetica;fontSize=14;fontColor=#FFFFFF;align=center;spacing=5;fontStyle=1;arcSize=7;perimeterSpacing=2;" parent="1" vertex="1">
                    <mxGeometry x="802" y="815" width="150" height="60" as="geometry"/>
                </mxCell>
                <mxCell id="10" value="Dielectric" style="rounded=1;whiteSpace=wrap;html=1;shadow=0;labelBackgroundColor=none;strokeColor=none;strokeWidth=3;fillColor=#F08705;fontFamily=Helvetica;fontSize=14;fontColor=#FFFFFF;align=center;spacing=5;fontStyle=1;arcSize=7;perimeterSpacing=2;" parent="1" vertex="1">
                    <mxGeometry x="1082" y="675" width="150" height="60" as="geometry"/>
                </mxCell>
                <mxCell id="12" value="Capacitance" style="rounded=1;whiteSpace=wrap;html=1;shadow=0;labelBackgroundColor=none;strokeColor=none;strokeWidth=3;fillColor=#12aab5;fontFamily=Helvetica;fontSize=14;fontColor=#FFFFFF;align=center;spacing=5;fontStyle=1;arcSize=7;perimeterSpacing=2;" parent="1" vertex="1">
                    <mxGeometry x="1382" y="815" width="150" height="60" as="geometry"/>
                </mxCell>
                <mxCell id="16" value="" style="edgeStyle=none;rounded=1;jumpStyle=none;html=1;shadow=0;labelBackgroundColor=none;startArrow=none;startFill=0;jettySize=auto;orthogonalLoop=1;strokeColor=#12AAB5;strokeWidth=3;fontFamily=Helvetica;fontSize=14;fontColor=#FFFFFF;spacing=5;fontStyle=1;fillColor=#b0e3e6;entryX=0;entryY=1;entryDx=0;entryDy=0;exitX=0.75;exitY=0;exitDx=0;exitDy=0;" parent="1" source="12" target="17" edge="1">
                    <mxGeometry relative="1" as="geometry">
                        <mxPoint x="1518.843971631206" y="736" as="targetPoint"/>
                    </mxGeometry>
                </mxCell>
                <mxCell id="25" value="CapacitorsÂ in Series" style="swimlane;gradientColor=none;startSize=23;fontColor=#000000;fillColor=#DE7A73;strokeColor=#DE7A73;" parent="1" vertex="1">
                    <mxGeometry x="270" y="610" width="359" height="250" as="geometry"/>
                </mxCell>
                <mxCell id="134" value="\[C_{total}^{-1}=(\sum C^{-1})^{-1}\]" style="rounded=1;whiteSpace=wrap;html=1;shadow=0;labelBackgroundColor=none;strokeColor=none;strokeWidth=3;fontFamily=Helvetica;fontSize=14;align=center;spacing=5;fontStyle=0;arcSize=7;perimeterSpacing=2;fontColor=#000000;fillColor=#f08e81;" parent="25" vertex="1">
                    <mxGeometry x="8.5" y="200" width="341.5" height="40" as="geometry"/>
                </mxCell>
                <mxCell id="161" value="" style="shape=image;verticalLabelPosition=bottom;labelBackgroundColor=#ffffff;verticalAlign=top;aspect=fixed;imageAspect=0;image=data:image/png,iVBORw0KGgoAAAANSUhEUgAAAVkAAACoCAIAAADFKQqEAAAZmUlEQVR4Ae2deWwWxf/H53layl0hgIhyCeUMLXgAAeQP5WpBDEGEcoghEiWNQoJRpB7IaUhBISLBqFHk0JBySiAIVC45Ara0BcoZ2kppRQqF0vL0ufaXbz+/58PO0+3ztNA+u3Tem6bPM7M7O/N5f2ZeOzO7z45o3bqV/k/DBgWggJIKCD0IWrdupaQIMBoKQAENLEAlgAJQ4H8KgAWoB1AACoAFqANQAAr4FEC/wKcEPqGA2gqABWr7H9ZDAZ8CYIFPCXxCAbUVAAvU9j+shwI+BcACnxL4hAJqKwAWqO1/WA8FfAqABT4l8AkF1FYALFDb/7AeCvgUAAt8SuATCqitAFigtv9hPRTwKQAW+JTAJxRQWwGwQG3/w3oo4FMALPApgU8ooLYCYIHa/of1UMCnAFjgUwKfUEBtBcACtf0P66GATwGwwKcEPqGA2gqABWr7H9ZDAZ8CYIFPCXxCAbUVAAuq539vwK1658LRUMBKCoAFVfUGQ8Dj8bhcLrfbTTFut9vlcnk8Hk3TKKaqZ7TGcV6vV1/yx9EEawj52JcCLKiSC6nBaJrmdrsrS8C7+ODKjjQ9nrnm9XoJbU7fxowDFEx3U4gLABYEF5yvnNTac3Jyli1bNmrUqOjo6JiYmNdee23lypX//vsvkYIPDn5ek47gRu71el0ul2EpHiOuVSy/nnQVv1c8HjGkAFgQpCZw26Zm89133zVv3lyUb40aNapXrx59f+aZZ3bv3q3HQZDzmrRbDwIqwn///ff7778vX7588eLFq1ev/uuvvwgE1EGg4YNJha12ttzyeRznKd8e93FctYV4qARgQRDZqHoRCNasWUMtf+bMmampqYWFhfn5+cePH58yZYoQomHDhqdOnaKLrWWHCVQwj8dD5Zw/f36LFi3IKP7fr1+/gwcPaprmcrksa0hFt3FRuVNT8RjexQdXPEbZGLAguOvpCpmVldWwYUMhxA8//FAxzYwZM4QQr7zyCo3AaSqx4mFWiPF4PG632+FwjBkzRghhs9mmTZu2du3a5OTkpKSkgQMHCiEiIiL279/POLB+y6ESer1eau35+fmrVq0aO3bs8+XbmDFjVq5cWVBQoO+4Wd+oENcWsCCI4DyoTkhIEEKMHz9e07SysjK6d+DxeMrKyjweT0FBQePGjYUQWVlZgacYg+RXm7v1fZyPP/5YCNGxY8eTJ0/65fnRRx8JITp37nz37l1Cm98BVgsyCKj7tn79+qeeeoq6OREREWFhYfS9TZs2O3bs0OPAaoaYWx6wIIj+1J0uLS3t2LGjEGLv3r0ej8fpdPJ9OB6Bnzt37ujRo3fu3OGYIKc2YzddNi9dulS/fDt06BCjzeVyEdc0TevRo4cQYvXq1ZqmOZ1Oi19CSXAybcOGDdTy33777ePHj9+4cSMvL+/YsWNTp06l/s7Ro0e5v2OGB6ybJ1gQxDdUw86dO2e325s0aZKXl0cdUb4WUXqLtxYuJDXsJUuWCCHi4uKoqesfjqA5gj/++GPmzJk7d+7UGxtEKVN30zguOzv7iSeeEEJ8/fXXFYsza9YsIcSAAQPcbjfNKVY8RuUYsCCI96ltHD16VAjRqVOnkpISTdOos0Ap6aJEbcbic+80U6Bp2quvvkoNhvo4bAJbFEQUi+32er3UU5szZ44QYuTIkcQ4Hsc5nU63233r1q1mzZoJIVJTUy07jjNRWrAgiPjUvI8cOSKE6N69O41I9b0Abkju8s2vvxDk7KHdzUWNjo4WQuzYsYNnQ6ggdAC1E2o/PBQKbUmrlxuh2el09uzZUwixdevWysZxZ8+ePXjw4K1bt9jS6uVUp48GC4K4l/oF6enpQoh27doVFxfTdJpfm/ejQ5CTmrSbGoDb7e7atasQ4sCBA34TadxCqC3R+IgjTSp18GypnFevXo0o365cuaIf2rBr+EvwMyp5BFgQxO1Uz/Lz8yMjI8PDwy9fvkz1jC+YPNM+b968oUOHHjlyhA8IcuqQ7+ZW3adPHyHEvn37/PoFVKLHrs1Q3y0tLU0I0aZNm9u3bz++47iQV4oHGYIFD7Qw/MZj7MGDBwsh1qxZQxPv3K5oaHDr1q1GjRoJIf7++2/LjkXZltjYWCHETz/95DdfwF2e7Ozs77///s8//yQzLU4H6rulpqYKITp06MBzOuxQtsL64zguc+i/gAVBNOcrJz102KVLlzt37vDUFP2iR9M0mpkfNGgQN6cg5zVjN82xeb3eTz/9VAgxbdo0vmXIraWsrEzTNJqEmzZtGicxo7xVzZP6BRcvXhRCtGzZsrCwUO8FBhl/qep5FTsOLAjucLr/VFJSEhMTI4QYMWJEdna2PtnGjRvr169PTx/wvWvD6qhPZcp3GvLQVGizZs3IEIfDQRdMer6gpKSkU6dONpttz549ZI4pRa16pnRPtLCwsFWrVna7/cyZM9wDYsaR4UlJSbGxsSkpKZYdx1Xd6ho/EiwIIildTKgmXbhwgZ44ioyMnDRp0vz58+fOnTto0CB6uGXFihU8FUcgCHLqkO+mhkG2jBw5UggxdOjQoqIiv4LQE5b9+/d3Op3EQW5RPEvil8TcIDfs4cOHCyG++uorHsdRweinSiUlJfTjC3rCim4JmVtyS+UOFgR3h74J5eXlTZ8+nR43JgTQ4ys7d+7Ug4AIcuXKldLSUmo/wbMJyRHUbDweT3Z2docOHehG6bfffnvs2LHTp09v2bIlLi6Oetpnzpwhi/gay19IkJCUt0qZ8Dhu7dq19GB1YWEhP0/J47hVq1YJIfr06cPPHVTp7MocBBYEdzWPM+mKqmlafn5+SkrK5s2bd+3adf78eToFjVp5aHD69OmoqKjc3FyrTSXyVfTixYtDhw5lovGXgQMHnj59mtFG1tGEnKW4pvcc9V8cDkffvn2FEEOGDLl69ar+gO3btzdt2lQIsW3bNh7HEd3Iv1YDnL7wofkOFlRJZ64ofG3UJ6PWRRQgInzyySft27ePjIyk38ZZ52eLFbmWkpKSmJgYHx8/YcKEOXPm7Nmzh46hB3W9Xm9eXt7o0aNfeumlIUOGHD9+3I8Reh3M+s4F9nq9V65ciYqKEkJERkZOnjx50aJF8+bNGzJkCJFu4cKFXH69U/gpbLNMsEK+YEE1vEBEoDbv8m3cHdDvLSwsPH/+fLdu3f755x+6112NbGr5UD3XGA1+edKTfNQPevnll6dMmXLt2rUvv/wyKiqqpKTEgg/zk1FU4IKCgnfeeadJkybc0xFCPP/885s2bSIQ8CPk6enpBw8erPgsqZ8aigTBgpp3NNXImzdvduvWjcYI+ktQzedX/TMytqhH48Pa/3/yXrrjSCCgVtSqVSsLjnr0Ixf9OG7v3r2bNm3avn17ZmYmiUTgpv/vvvtu//79Y2NjX3zxxWvXrhn2+Kov7WOcAiyoSedRK6LLTn5+vjX7BXqDqcD6uwP6GH0bczgcY8eOHTVqlH6MrT+V6d+55JW1agaBpmn79u3r2LEj/aIpLi7u888/J/CZboWJBQALal586gUUFBT06NHDgmOEqhvMs4zJyck9e/Z86623ioqKLDhA0FtERAgwjiNS5+TkpKenl5aWZmVlDR8+PDk5mW5GVDZo0mdRV7+DBTXvWeqmXr9+vW3btjk5OdS7rvlsavmMfKPuxx9/7Nu3b3p6ei1nGLrTc4Pfvn179+7dn376aX4tRegKYb2cwIKa9wlVNYfDkZKSYrXnC6puLV0/i4uLmzdvvmjRol27dq1bty45Obm0tJR741U/m0WO5F7DvXv3Ssu3oqKihISE0aNH841GixQ19MUAC0Kv+eORI410bt68OX369AkTJrz++utjx4598803b968abU7I1UXlN96kpSUNHnyZEr4888/Dxo0iG8xVP1sdexIsMDYoXRt5wsg9yqNjy6P5WsOvY2ffxLHJwmQ1pq7qmK1NUseoFQ0g3j58uV27drNnj178eLFbdu23bx5M+YLwAL/asNNl5q0funEAG2Dd+lvH/L9Ld7rn1lIwmwR00p/g6CyIvDBDofj/v37DofD6XTSr4Orkryy05obT0aRjy5fvjxv3rzExER6gIofOjC3hCbmDhYYi69v0voucYBWTXPXmqZlZWVt27aNnoE1vYYxCPg5wqq0ZzbTTweK573G2j0OsX52cbAOmPbQ8oMFknT660Z6evp77703Y8aMEydO+L0nR0pTHuDbbytWrKDfL0dGRm7cuJFGoabXMK7rXPKgrZrRlpKSMn/+/N9++424VvFUfM5QfuFuC3ffOCaA2mw1d9mos6N/wiKUVlgqL7DA3x00nkxNTeUfI0ZERBw6dCjweJJSXb16lVbmoHUWW7Zsefv2bW5U/jmFJMyQOnDgQGxsbL9+/RYvXhz0h3p8Q3HFihX8JO+kSZN4EiQkZa80E27tfmDipm6YkvfSl9zcXFrYhoc8fFrD5HU+EiyQXMzzzLQmWv369SMiIoQQ8fHxdM/Jr/JxYnqmfd++fbQqGf232+0ZGRnmPl9AkDp//jwtAEcNe968eYFvoVEXoKioqGXLlkKIevXqEeOOHTtGCdlws74wYdPS0pYuXbp27VqHw6EfzRkWjMjo9Xrnzp3bpEmTiIiIYcOG5efnV/aoouFJ6mokWCB5lh+wnTBhghDCXr7Ru4y4GkkJfAFqcvv372cWUPLMzEy+xvqODeknPWa7bNkyWjUoPDzcbrd37do1cIefutDZ2dk03iFbbDYbzbfTOUNqhpwZ99G2bNnCS10PGTKktLQ0wGOR7IgdO3YQE202G7/rjadR5KwUCoEFkrO5Rz1x4kQhRFj5xksMBagu1HiIBdypttvt9KsYHp1KmYUkUFZW5vV6FyxYQO2ZyhYVFUXvNaysV0ykyM3NbdCggb7ZbN261Qr9AmrwHo+HFnqIiIgIDw8XQtAvESt7YRG/6HXu3Ll2u52waLfbe/XqpZ8nColbrJgJWCB5hS8dhiygi7+UwBfQs4CuNtwvMHeMQNfwhQsX8rVdCBEVFUWLqQVggaZplmUBFfvevXvt2rUjVIWFhdlstqSkJB7l+Tzz4JN7E4mJiaSG3W4XQkRHR9PQrzI1HpyiTn8DCyT3Bu4XPO4soAbDLOA5M0mC8gC1DT0LqNlYpF9Al/Hi4uL27dvz1Ay/6bCyfgFjglgQFhbGLOB7EBWlUCcGLJB8DRaQHI8FC+7du1ddFhAmDFkQgIxSFam7AbBA8i1Y8LiwQNM0PQvoNge9ATlAvwAskKq7HAALJD3AArBAqhAqBcACydtgAVggVQiVAmCB5G2wACyQKoRKAbBA8jZYABZIFUKlAFggeRssAAukCqFSACyQvA0WgAVShVApABZI3gYLwAKpQqgUAAskb4MFYIFUIVQKgAWSt8ECsECqECoFwALJ22ABWCBVCJUCYIHkbbAALJAqhEoBsEDyNlgAFkgVQqUAWCB5GywAC6QKoVIALJC8DRaABVKFUCkAFkjeBgvAAqlCqBQACyRvgwVggVQhVAqABZK3wQKwQKoQKgXAAsnbYAFYIFUIlQJggeRtsAAskCqESgGwQPI2WAAWSBVCpQBYIHm7xlmQkZHBr+XnF2+H8ot+rZRHeSc6LfqwZcsWerN4KE2omBct5VJcXKxfH6Eq70T3e/cpGdWrVy+Xy0VrtNKCkVb4r7daqqO1FjCTBWQtvYvaZY3N6XQ6HA6Xy8VrqNELduPi4gKvmGy4VorNZktLS3M6nffv33eatJWUlDidzi+++KLiWikB3gJe8Z3o1Gw2b97sdrsdDoe5rYWa7p07dx6RBbQ+QkxMTK21rxo4cchWcDGTBTWgU62dYurUqRXXUHuItVJyc3NrrYzVODGtp/go/QJqNrt3765GrrV/aIcOHWitlId7JzoBrkuXLhkZGZmZmfQ/0+wtIyPjzJkztGBfyECgaZqZLOB+wd27d5OTkzds2LDR7G3Dhg3r16//9ddfBwwYoK9kD90vmDVr1tKlSxctWrTEpG3RokXLli0bNmwYmUO1n9ZQq1a/gJYqGzx48KRJkyZMmDDR1C0+Pn7ixInjxo1r1KgRr6H2EGMESmu1/4Td8ePH01rSIcOBmSzweDw0fqPFC63mEn0lezgWWNCiR2SBBS3Su6m6a6VY1hwhRN++fWkJeRqv1X4fy+x+AbHggw8+sNvtVE2t5p5HmS8QQjRr1qxVq1YtWrRoadLWokWLJ598kq+fj8iCZ5999rnnnuvdu3cfC2wxMTG84PqjjBHatm27du3aX375hf7/YoFtw4YN169fV6hfwGMETdPS09NPnTr1t9nbqVOnTp48mZqaOmLECJpsexQW2Gy2/fv3X79+PTc3N8+kLScnJz8//8MPP6yRucNt27aZu2y0/vJYUlJC6ynSzM5DjBGoN967d2/9aZX9buYYwcqiT5kypUbmDrOysqxg5pIlS8ich+4XULPZunUrL0tvol00hH709RRJjV69ejmdTpfLRf+tcUfLRUMD/fWytgU3kwVsJ93VN/c2FeXucrnKysrcbnd8fHyN9AvS09M9Ho/T6fSYtDkcDo/Hs2DBghrpF9Sx5wsIcNHR0QSXkM3S1Xarfrjzm8mChytxraaq8WeNMjMzze1UO51OTdMWLlxYU/0CTdNolqdWHRH45DXVLwAL9DqDBXo1NLCA5Kj4rBGPEcACqcbUoQBYIDkTLAALpAqhUgAskLwNFoAFUoVQKQAWSN4GC8ACqUKoFAALJG+DBWCBVCFUCoAFkrfBArBAqhAqBcACydtgAVggVQiVAmCB5G2wACyQKoRKAbBA8jZYABZIFUKlAFggeRssAAukCqFSACyQvA0WgAVShVApABZI3gYLwAKpQqgUAAskb4MFYIFUIVQKgAWSt8ECsECqECoFwALJ22ABWCBVCJUCYIHkbbAALJAqhEoBsEDyNlgAFkgVQqUAWCB5GywAC6QKoVIALJC8DRaABVKFUCkAFkjeBgvAAqlCqBQACyRvgwVggVQhVAqABZK3wQKwQKoQKgXAAsnbvBAILfEYVr4JIR5uPUW73Y53okv61lAA70SvISGl04AFkhyBWUDLYEsJfAG3261p2v79+/XrQVqcBbxWjc+IB594J/oDLZT5BhZIrvZ4PG632+v18rpJtC5AbGwsDR8qW/SWUu3du9dWvhER7HZ7RkYG80XKKVQB/VopZIsQIioqqqysLDALvF5vbm5ugwYNyBZabmzr1q1YHyFUrgt1PmCBpLjX66XGM2PGDCFE/fJNCBEfH09toLJltmgpocOHD9PyRHa7PSwszGazXbhwwdx1k6jNz58/n4tks9k6d+5MZlZmDqEtOzubWUALYW/evJklkoQLbYAopl9PkTBX3TXXKRWtoRaAjKE1zrTcwAJ/6WkgkJqa2rhxY7ok1qtX7/Dhw9QvqKzx0GqJd+/ejYqK4mHCoEGDeCVF/2xCFSZIrVu3TggRHh4eEREhhBg4cGDgbg51f27cuNGkSZOwsLDw8HBa3Xzfvn3W6RcUFxfr11m22WzLli0L0AujXV6vNzExkVaXZBaQvZU5N1S+MjkfsEByAF0cqGakpaW9//77CQkJJ06c0DTN4/EEqCt8A+Ls2bOjRo3q2rXrG2+8kZubGzShlH0tBAhS9+7dGzZsGEGqadOmKSkp3DAM82RzEhISGG0vvPBCSUkJndAwVcgiyRdlZWUdO3a02+3MuDVr1miaRl2eioWhRW41TUtMTLTZbOHh4fbyjfsFlQ0AK56qTsaABZJbubX7VQsO8gFSMl+A95aWllIcx/gOCfUnd33dbvemTZu++eabS5cuVYVQ1N5cLtfy5cvj4uJmz55dUFBQlYQhsJAv/p999hmjqkWLFjk5OUyxisVg/O3Zs4dTCSESEhICDwArnqpOxoAF/m7VNx5X+UaDZ473T1Ae5r182XS73UQQ3mWYMDSRfkgKijY63i+Vpv1v7dnQFDhoLqSzx+NJSkoaPHjw+PHj09PTg6KKSbF06dLWrVs3atRo3LhxhYWF7LWg+dbhA8ACA+dy6+UvVWkGdLD+P6Uyt/2wCXRVpPkLLqSB8eVRfqncbrfL5bIa2ioKy4wztIuOZ9Nu3bp17do1OpJ3GSZUJBIsUMLRXNf5S1Czuc3owcGRQZPX6gFcDAIc3QmmRzx4l2EB2Hw6WN+PCJzQ8Gx1LBIsqGMOVcUcarr6/1XphXGD93q9NC5gOtAXVeQzshMsMFIFcVBAPQXAAvV8DouhgJECYIGRKoiDAuopABao53NYDAWMFAALjFRBHBRQTwGwQD2fw2IoYKQAWGCkCuKggHoKgAXq+RwWQwEjBcACI1UQBwXUUwAsUM/nsBgKGCkAFhipgjgooJ4CYIF6PofFUMBIAbDASBXEQQH1FAAL1PM5LIYCRgqABUaqIA4KqKcAWKCez2ExFDBSACwwUgVxUEA9BcAC9XwOi6GAkQJggZEqiIMC6ikAFqjnc1gMBYwUAAuMVEEcFFBPAbBAPZ/DYihgpABYYKQK4qCAegqABer5HBZDASMFwAIjVRAHBdRTACxQz+ewGAoYKQAWGKmCOCigngJggXo+h8VQwEgBsMBIFcRBAfUUAAvU8zkshgJGCoAFRqogDgqopwBYoJ7PYTEUMFIALDBSBXFQQD0FwAL1fA6LoYCRAmCBkSqIgwLqKQAWqOdzWAwFjBQAC4xUQRwUUE8BsEA9n8NiKGCkAFhgpArioIB6CoAF6vkcFkMBIwXAAiNVEAcF1FPg/wB5gS1yJsmWwAAAAABJRU5ErkJggg==;" vertex="1" parent="25">
                    <mxGeometry x="7" y="26.5" width="345" height="168" as="geometry"/>
                </mxCell>
                <mxCell id="54" value="Energy of charged capacitor" style="swimlane;gradientColor=none;strokeColor=#61C6CE;startSize=23;fillColor=#00BFBF;fontColor=#000000;" parent="1" vertex="1">
                    <mxGeometry x="1635" y="1120" width="515" height="100" as="geometry"/>
                </mxCell>
                <mxCell id="55" value="\[U=\int_{all\ space} \frac{1}{2}\varepsilon_0E^2dV=\frac{1}{2}\varepsilon_0\frac{\sigma}{\varepsilon_0}Ah=\frac{1}{2}QV=\frac{1}{2}CV^2&lt;br&gt;\]" style="rounded=1;whiteSpace=wrap;html=1;shadow=0;labelBackgroundColor=none;strokeColor=none;strokeWidth=3;fillColor=#61c6ce;fontFamily=Helvetica;fontSize=14;align=center;spacing=5;fontStyle=0;arcSize=7;perimeterSpacing=2;fontColor=#000000;" parent="54" vertex="1">
                    <mxGeometry x="7" y="30" width="501" height="60" as="geometry"/>
                </mxCell>
                <mxCell id="78" value="" style="edgeStyle=none;rounded=1;jumpStyle=none;html=1;shadow=0;labelBackgroundColor=none;startArrow=none;startFill=0;jettySize=auto;orthogonalLoop=1;strokeColor=#12AAB5;strokeWidth=3;fontFamily=Helvetica;fontSize=14;fontColor=#FFFFFF;spacing=5;fontStyle=1;fillColor=#b0e3e6;entryX=0;entryY=0.25;entryDx=0;entryDy=0;exitX=1;exitY=1;exitDx=0;exitDy=0;" parent="1" source="12" target="54" edge="1">
                    <mxGeometry relative="1" as="geometry">
                        <mxPoint x="1920" y="942.5" as="targetPoint"/>
                        <mxPoint x="1544" y="871" as="sourcePoint"/>
                    </mxGeometry>
                </mxCell>
                <mxCell id="79" value="Capacitance" style="swimlane;gradientColor=none;strokeColor=#61C6CE;startSize=23;fillColor=#00BFBF;fontColor=#000000;" parent="1" vertex="1">
                    <mxGeometry x="1680" y="575" width="400" height="165" as="geometry"/>
                </mxCell>
                <mxCell id="80" value="Ratio of charge on either plate to the p.d. between the plates is called nthe capacitance, C of the capacitor." style="rounded=1;whiteSpace=wrap;html=1;shadow=0;labelBackgroundColor=none;strokeColor=none;strokeWidth=3;fillColor=#61c6ce;fontFamily=Helvetica;fontSize=14;align=center;spacing=5;fontStyle=0;arcSize=7;perimeterSpacing=2;fontColor=#000000;" parent="79" vertex="1">
                    <mxGeometry x="9" y="30" width="381" height="60" as="geometry"/>
                </mxCell>
                <mxCell id="157" value="\[C=\frac{Q}{V}\quad \Rightarrow Q=CV\]" style="rounded=1;whiteSpace=wrap;html=1;shadow=0;labelBackgroundColor=none;strokeColor=none;strokeWidth=3;fillColor=#61c6ce;fontFamily=Helvetica;fontSize=14;align=center;spacing=5;fontStyle=0;arcSize=7;perimeterSpacing=2;fontColor=#000000;" vertex="1" parent="79">
                    <mxGeometry x="9.5" y="95.5" width="381" height="60" as="geometry"/>
                </mxCell>
                <mxCell id="84" value="Parallel plate capacitors" style="swimlane;gradientColor=none;strokeColor=#61C6CE;startSize=23;fillColor=#00BFBF;fontColor=#000000;" parent="1" vertex="1">
                    <mxGeometry x="1670" y="767" width="400" height="173" as="geometry"/>
                </mxCell>
                <mxCell id="85" value="\[C=\frac{Q}{V}=\frac{\varepsilon A}{d}\]" style="rounded=1;whiteSpace=wrap;html=1;shadow=0;labelBackgroundColor=none;strokeColor=none;strokeWidth=3;fillColor=#61c6ce;fontFamily=Helvetica;fontSize=14;align=center;spacing=5;fontStyle=0;arcSize=7;perimeterSpacing=2;fontColor=#000000;" parent="84" vertex="1">
                    <mxGeometry x="9" y="30" width="381" height="60" as="geometry"/>
                </mxCell>
                <mxCell id="159" value="\[E=\frac{V}{d}=\frac{\frac{Q}{A}}{\varepsilon}=\frac{\sigma}{\epsilon}\]" style="rounded=1;whiteSpace=wrap;html=1;shadow=0;labelBackgroundColor=none;strokeColor=none;strokeWidth=3;fillColor=#61c6ce;fontFamily=Helvetica;fontSize=14;align=center;spacing=5;fontStyle=0;arcSize=7;perimeterSpacing=2;fontColor=#000000;" vertex="1" parent="84">
                    <mxGeometry x="9" y="103" width="381" height="60" as="geometry"/>
                </mxCell>
                <mxCell id="90" value="" style="edgeStyle=none;rounded=1;jumpStyle=none;html=1;shadow=0;labelBackgroundColor=none;startArrow=none;startFill=0;jettySize=auto;orthogonalLoop=1;strokeColor=#12AAB5;strokeWidth=3;fontFamily=Helvetica;fontSize=14;fontColor=#FFFFFF;spacing=5;fontStyle=1;fillColor=#b0e3e6;entryX=0;entryY=0.5;entryDx=0;entryDy=0;exitX=1.004;exitY=0.456;exitDx=0;exitDy=0;exitPerimeter=0;" parent="1" source="12" target="84" edge="1">
                    <mxGeometry relative="1" as="geometry">
                        <mxPoint x="1670" y="510" as="targetPoint"/>
                        <mxPoint x="1537.5" y="833.9439590443685" as="sourcePoint"/>
                    </mxGeometry>
                </mxCell>
                <mxCell id="91" value="" style="edgeStyle=none;rounded=1;jumpStyle=none;html=1;shadow=0;labelBackgroundColor=none;startArrow=none;startFill=0;jettySize=auto;orthogonalLoop=1;strokeColor=#12AAB5;strokeWidth=3;fontFamily=Helvetica;fontSize=14;fontColor=#FFFFFF;spacing=5;fontStyle=1;fillColor=#b0e3e6;entryX=0;entryY=0.5;entryDx=0;entryDy=0;exitX=1;exitY=0.25;exitDx=0;exitDy=0;" parent="1" source="12" target="79" edge="1">
                    <mxGeometry relative="1" as="geometry">
                        <mxPoint x="1710" y="700" as="targetPoint"/>
                        <mxPoint x="1544.616" y="852.184" as="sourcePoint"/>
                    </mxGeometry>
                </mxCell>
                <mxCell id="100" value="Dielectric of perallel plate capacitor" style="swimlane;gradientColor=none;startSize=23;fontColor=#000000;fillColor=#F0A729;strokeColor=#F0A729;" parent="1" vertex="1">
                    <mxGeometry x="350" y="170" width="510" height="270" as="geometry"/>
                </mxCell>
                <mxCell id="170" value="" style="shape=image;verticalLabelPosition=bottom;labelBackgroundColor=#ffffff;verticalAlign=top;aspect=fixed;imageAspect=0;image=data:image/png,iVBORw0KGgoAAAANSUhEUgAAAeMAAABzCAIAAAAkBP2YAAAgAElEQVR4Ae19f1BT2fn+1aICIyBdsGjNxqEDoy6IqwK6OtQwZlxcMOlW3QnjkIpLG7so/izQmsY4wjBd9Iod0lJlYh3SdegsGRg6bpxFM6Kt+BEYM5NZbFMwKi7GjblRwQSj9zvL+Xp7TUIIkB/3Ju/5Q8899z3ved/nPffh5tx734ORUAAB/yNgt9u1Wu2OHTsyMjJ27Nghe1MOHz6ckZHxySefmM3m6VhBEMTvfve7hoaGW7duVVdXS6VSgiCmoxD6AgKMQgBjlDVgTKgiYLPZ/m/88p///Ofly5fT9P3evXutra03btz46quvnjx5Mk1t0B0QYBQCwNSMCgcYAwgAAoCAGwSAqd2AAk2AACAACDAKAWBqRoUDjAEEAAFAwA0CwNRuQIEmQAAQAAQYhQAwNaPCAcYAAoAAIOAGAWBqN6BAEyAACAACjEIAmJpR4QBjAAFAABBwgwAwtRtQoAkQAAQAAUYhAEzNqHCAMYAAIAAIuEEAmNoNKNAECAACgACjEACmZlQ4wBhAABAABNwgAEztBhRoAgQAAUCAUQgAUzMqHGAMIAAIAAJuEACmdgPKZJvKy8s/hQIIhAoCX3zxxWQvAZD3NwLA1D5AWC6Xl4Vu4fP5ycnJEokkdF0MHc927ty5dOnSafrT0tLig6sCVPgUAWBqn8IZisqUSqVAILBYLKHoXKj5NDAwkJOT09/fH2qOhb0/wNRhPwUmAgCYeiKEGHR+YGAAwzC5XG632xlkFpgybQSAqacNYagrAKZmUYQRU3M4nKtXr7LIbDB1QgSAqSeEKNwFgKlZNAMQU2MYxufzWWQ2mDohAsDUE0IU7gLA1CyaARRTYxim0WhYZDmY6hkBYGrP+MBZEpiaRZOAztTr1683Go0sMh5M9YAAMLUHcODU9wgAU7NoHtCZetasWVKplEXGg6keEACm9gAOnPoeAWBqFs0DOlNjGLZ48WKtVssi+8HU8RAAph4PmUm0379/f2Cccv/+fbqiZ8+ejSP4ffPLly/pwh4kHz9+TJd8/PixB2G65MuXLz1IPnv2jC6M/Pr888/5fP7t27fpHUPAL7o7VJ3uF0EQT548oU65VhgVr+HhYaPR2NnZib1dJBJJX1+f1WqlRxbqrEMAmNoHITt48KB4nHLw4EH6AJ2dneMIft+M+HdkZOTbb791OBweJM+cOUNXe+bMGQ/CdMnHjx97kOzs7KQLI7/WrVvH4XBEIhG94xT8ojTT9TjVA+mX09DokO5XYWFhbW2tWzHU6PT30oNkAPzq7u7evXv3z3/+87eJ+vujnJwceLpITT+WVoCpmRW47u7usrKy06dPv3jxgiGWhe3qR1xcnFqtZkgUvDTj0aNH77//vhNZ5+TkeNkdxBiLADA1U0JjMBhKSkoSExOXL19+7dq1169fM8QyYGqGBMIbMywWi0AgcGLqFStW9PT0eNMdZBiLADB1kENjtVr7+vqkUmlCQgKGYdHR0QqFIsg2vT08MPXbeDD6yGKxfPzxx3Pnzp0/f356enp5eTmHw2loaGC00WCcFwgAU3sBkn9EzGZza2urSCSi3wEVFRX5Z7SpawWmnjp2Ae85PDx8bqzodDqSJAmC2Lt375IlS+ANkICHwscDAlP7GFAv1alUqoKCgvj4eDpN8/l8k8nkpYaAiQFTBwxqfwxkNBrXr1+fkZHx8OFDf+gHnYFBAJg6MDj/bxSNRpOenh4TE0PnaAzDkpOT+/r6/ifHmBowNWNCMUVDTCbTqlWrRCIRA+8DpuhS+HUDpg5ozFUq1axZs5w4GsOwyMjICxcuBNQUrwcDpvYaKuYKondCJBKJ2WxmrpVg2fgIAFOPj40fzhiNRqFQOHPmTDpZz5w5UywWEwThhwF9oBKY2gcgBlvF6Ohoc3PzT37yE4lEAnfWwY7GVMYHpp4KalPuQxCEWCx2Yuq1a9ei5z9TVuvXjsDUfoU3kMo7OzuzsrIEAkF7e3sgx4Wxpo8AMPX0MfRWg8lk+ulPfxoZGXn69OkVK1ZQt9UM/34MmNrbALNBzmQyFRcXp6SkwNsgbAjX/2wEpv4fFn6qORwOs9msVqujoqIyMjLQFdLa2hobGxsREcH8r+CAqf00MYKl1mq1FhcXozsGyAcSrChMdlxg6skiNjl5u93e0tLC5/OXL19eV1dHvSmF1g0rKioYuzxN+QlMTUERMhWCIGpraxcvXiwSiVpbW+ExI/MjC0ztxxhpNBqRSJSWlnbgwIGuri4/juRP1cDU/kQ3mLq1Wu2ePXuWLVv2y1/+sru7O5imwNgTIQBMPRFCUzqv1+vz8vLi4+P5fP6VK1dGRkampIYRnYCpGREG/xgxPDx86dKl5cuXJyYmlpSUGAwG/4wDWqeLADD1dBGk9x8dHX306FFDQ8OSJUsWLFjQ1tZGP8vSOjA1SwM3KbMbGxs5HM67775bWFh4+/ZtWL+eFHoBEAam9g3IDodDr9fjOP7+++9nZmZKpdKQ2cIOmNo3U4TxWoaHh+vq6oRC4cqVK0UikVKp7OjosNvtjDc8LAwEpvZBmA0Gg0wmy8zM/OCDD+rr6/V6vQ+UMkYFMDVjQhEIQwiC0Ol09fX1GzZsSEtLE4lEn376qUql8vmjb+NYCYRLITEG+5ga5c3gvl3oW3UEMi4mk0kul3O53ISEhIaGhkePHr169SqQBgRgLGDqAIDMtCFevXr13Xff3bt3TyqV7t69e8WKFYsWLeJyuUVFRTiOt7W12Wy2adqsGiteKkFX2dsXPZe+lZqXetgrxiam7uvr4/P5UVFRHA5n0aJFc+bMmT9/PgpegJl6dHT03r17EonkvffeW7RokVwuZ+8MmNByYOoJIQoHAY1Gg+M4nTE5HE7cWNm/f79srBw+fLhsrPzhD3948OCBZ1iUY8WzzMjIyNmzZ2NiYuLj47lc7rx58+bMmUPxNTC1Z/SCc1av1ycnJy9cuLCmpmZ4eJggiF27dsnl8gC/VmE0GltaWqqrq9esWbN58+ba2lqf/yoMDr4uo6JfwfS9ye12e19fX4ABd7ErcA1s3J0rcOiQ5PDwsPrtIpVK0WaS3jynmZCp7Xb7qVOnYmNjqX0g29vbV61aFZ5fV7LmnjovLy8iIqKsrIxiio6OjrS0tMrKSvrsHB0dvXHjhueneUhGrVYPDw/T+3quox1FeTxeWlqaRCK5du1aaGe6uXz58vr16+lMrVQqS0pKvv32W89AhcxZYGq/hnJCph4cHORwOElJSb29vZQlJSUlKSkprnlLDAbDsWPHQvjOiTVMzeVyY2Njm5ubqZg9ePBg48aNs2fPpu8R9+LFC6lUqlKpKDHXCkEQhYWF27Zts1gsrmddW7RaLdrhcOXKlVKpdHBw8Pnz58zZ59DVYJ+06HS6+fPn9/T0UKsfZWVlO3bscDgcPtHPfCXA1L6NkdVqLSkpodYu3hkr1CGX67zuPDAwgGHY5s2bnzx5Qlmi1WoxDBMIBE73SatXrx4YGKiuru7o6KCEQ6kSTKZ++fLlo0ePBsYpTk/nUlNTY2JinChYLBZjGIbjOD0kDofjxYsXr1+/fvXq1Xh3zRT70DtSdZvNZjabb968efz4cT6fz+Vy8/LyQuyNDspZD5XU1NSamhoKq8jIyNraWkoefd3zgx/8YMaMGYmJidQlt2DBglmzZpWVlVGSLK2Mx9QajWb9+vUozzjlNZfLTUxMjIiIUCqVLPU3wGZPeE999+7diIgIPp/v9LE7hmEZGRn0G221Wh0XF0fZP/2nnZQq5lSCydRPnjypq6tDC1uu/9bV1dF5Vi6XYxi2fft2avVjZGRk+/btGIY1NTVRgD579uzUqVP19fXPnz9vbm6WyWStra1KpRKtbREEceHChVu3bh04cEAgEDjdU9vt9n/+858XLlw4cuTIhx9+uHTp0u3btx87doxSHm6V0tLS3NxcxNTXr1//4Q9/ePnyZScQuFyuE6MZjUaxWHz48GEnSdYdOvlFt7+3tzcjIwPD3rp8uru7t27dCkxNB8pDfUKmNpvNfD4fw7CbN29SekwmE4Zha9asoTZIMpvNJ0+enDt3bu9YaW1traur6+/v7+zs1Ol0Fy9e7OrqunTpEuKNixcvarXa1tbW/v5+SicrKm9NNSZbbDKZkpOTly5dSiXQ6OvrW7NmTXJyMv130LNnz3bt2oVYuLCwMCcn5/z58yKRaPXq1SRJ1tbW7t+/35WpHz582N7eLhKJUlNTP/jggwMHDpw/f76rq4v6q8BkZPxnW1tb28KFC6urqwUCgUwmW7RokevjU1emJknyxo0b9KvLfxb6VfNkmZokyVtjxa9WhYzyCZna4XAolcrY2NidO3dSXjc1NTk9r3Ji6oKCgsLCwv7+/vb29rq6ui+//PLKlSv5+fmXLl0yGAz79+/XarUymezDDz+kdLKiwhqmJkny9u3bKSkpa9eu1Wg0VqtVLBYvWbLk9u3bTkBTv9apdVUcx7lcrl6vz8zMRH+KKRmNRpObm7tw4UIejyeVSgcGBh49ehTmBE3habPZ5s2bt3XrVoFAwOFwhEIhdYqquDK1yWQaHBwMgXX8yTK1zWa7c+dO+KzjU3NgapUJmZokyZGRkcrKypiYGJSTRKPRcLncgoICpzsG+uqHWCxGK286nU4sFldXV584caKysrKrq0uhUAiFQhzHq6qq9u/fPzWzg9WLTUxNkqTJZCoqKkKLg+OtHVMsXFZWJhaLSZJETI1+sboydWlpaRiuQXs54fh8fnJyMp/Pj4mJUSgUrr3Qk96mpibLm1JfX++6AuBwODo7O6VS6Z07d1yVMLPFG6Z+4/T3/1dUVDhlG3/8+LHTGqurpwRB3L17NwzfPNOPFVdAXFt6enqo5wFuv11wy9S9vb2HDx9G+KNnVydPnqS628aK61iMbWEZU3uD43hMjfYwPHr0qN1ul8vlGzZs+Oabb7xRGM4yx48fp/amcZtojcvlzpkz55NPPkHfPhw5cmTDhg2uTN3b27t7926VSnXgwAG24OkNUyOv0b8rV650Yura2toTJ0549re9vX3evHlOT8U9d4GzTgi4ZWqj0cjj8T7//PPe3t6LFy9+/fXX7e3t77zzTmtra29v75/+9Cd2LVWHGlMPDw9//vnne/bssVgslZWVBw8eNBqNOI7/4he/ePjwoU6n279/P/p0pby83C31OE2CMD+8efMmYurk5GS3UHC53Llz5548eRI9z0HPAFyZ+vjx4+j3Df2hgluFzGn0hqmR1+jfbdu2OTE1QRDevH7O5XKBqaccd4Igzp07t23btvb29hs3bhw8eLCyshLteNfZ2SkSiY4fP/7ll1+ibybr6+t37tz55z//+R//+MeURwxKx1Bj6levXqEfpFTFbrdbrVaCIEZHR0mSRPXnYyUE1lL9PWkePnyYnJyMYZhEInE7lus6dddYoQs3Njbm5ORkZmbiOK7VanEcbxorVqsVHeI4jtJsonyEOI7T35Gnqwpk3RumpttjNBrpTG0ymZqamtLT00mSRG803r9/H/mO/lxZrVZ8rMTHxwNT05GcVN3hcDx9+tRisRAE8fz5c3T5U1lb6dc+SZKIFtj4PUSoMfWkYgzCEyJAEMTWrVsxDGtpaXEr7MrUSMxms1FXC0mS1DODnp4e9F62RqO5f//+li1bbt26JZfL16xZYzabDx8+fP369cuXL8+fPz/o+7VPlqmR4wRBoIeKJpOpvLw8MjKSJEn0jCQ/P7+6ujotLU2pVNpstnXr1ikUCoPBkJSUBEztdnZBI4UAMDUFBVTcIDA6OlpdXR0bG3vv3j03p0lyPKauqamh77lOMTVJkhQD4jheXFysVqsVCsWnn346MDDA4/FQJondu3cHfb8oyk5Xx92+T02SpNlsPn78OLXCQ62fIvmBgQGLxSIQCJRKZVtbG5fLRZph9cMVYWhxQgCY2gkQOHRGoKWlRSAQfPfdd84nxo5dmdpoNCoUinnz5tHlx2Pq0tJSSuzrr78WCoXoBazR0VFqd2BKIMCVyTK1TqeTyWQ7d+6kvqjywNTofSTkETB1gCPLxuGAqdkYtYDafPHixV/96lcU+1Bj6/X60tLS6Oho16/Jo6Oji4uLKUn66gf9nlqr1SYlJaFb79LS0oGBgQ0bNvzlL3+x2WxXrlxxzcJDVxiA+nhMrdVqxWKx69fk8+fPj4qKqq+vp3KUe2BqrVYbHx+PfAemDkA02T4EMDXbI+h3+6m3Hqc8Uk9Pj1AozMvLa2trUygUqamp1DvsKN9xbm6uRqOx2WyNjY2rV6/mcrmNjY1THs5XHWUyGf0J4WTVol0mUlNTe3p6tFrt6tWr5XK5yWTKzc2tqamx2WxtbW15eXmlpaWpqamw2+xk4Q03eWDqcIv4pP2dPlNPekhmdBAIBHV1dcywBawIdwSAqcN9Bkzof9gyNYZh6B3wCSECAUDA3wgAU/sbYdbrD0+mbmxsxDAsMzMTMg2wfgaHhAPA1CERRn86EZ5MjbLs0nM3+hNj0A0ITIAA+5jaaDSqVCqUiIv6t7OzcwJH4fRUEQhPpuZyuegzetcv46cKJPSbOgJdXV3UxU5Vnj17NnWNbOvJIKY2jhUPAA4PD9fV1fF4PPSCFJU5CNYTPYA2/VNhyNTd3d1oA5ekpKQ9e/bQd7SYPp4hpqG7u1utVjc3N1dUVIjFYpVKpVarL1++7JSYdMpeo/1Lly5dSr/eUX1gYGDKalnXkUFMrRorHhDcsmVLVFQUn8+/ffv2zZs3s7Ozz507h/b2evz4sYeObk8ZDIaQ3MXHrbPTaQxDpkbvQcfGxm7evNl1b6DpgBkafQ0GA7UjYmJiYlxcXEFBwaFDh8rKyvLz8+Pi4tavX++TZABarXbZsmUzZsxAueN/85vfZGdnU9v5vXz5ko4njuP0z2Lpp0KgziCmRj9qxsMUrRvSd7pUqVSuOwmgHQactlt00mkymbKysuAKdIJlvMMwZGqUjT4uLu7Xv/71woULw+rebbxpMDw8bDQai4uLo6OjExISjh49ipKWjCc//Xa0O1dERAT9rfb09HTXnQRGR0cFAoFGo9m6dSvseDt95CfQ4JmpuVxudHQ0PZm92925SJKccBWFJMkwZJ8J0B//dLhhZTabCwoKGhoa4uLiampq1qxZw7oMmeMHcypn7HZ7R0fHnj17Vq1aJRAIFArFjRs3UGbKSalDeqhVZqdKR0eH3W6nK0R7k2dlZVF5VEiSdN2dC+0Gl5CQQJIkMVboSkKmzpp7atf8Em53vB0eHj43VoaHh1Uq1ZkzZ9A6GpWKWqPRqNXqPXv2wD21l5M43JiayqYUFxf3t7/9bfv27SGwz7qXsXYVMxgMR44cSUtLE4lE165do5Omq7DnlqkxtdN16rrjrdForKioiI6ORuvjly9fVqvVOp2uu7sb7Y+qVqupbF86nQ6lAGPds4dgMvXQ0BC12sXlct8ZK9Q2PFwu9/79+1TshULhjBkzdu/eTbWQJCkWizEMo2eMtFgsH48Vi8VSVla2ePHiffv2bdmyBe14q1Ao8vLyhoaGqL3J5XJ5Xl4eShNM1wx1CoFwY2qVSvXRRx+ZzWaU9+PYsWPofo0CJHwqGo0mNTU1ISHh7NmzVqs1wPncUW70qKgoo9FIxxzDsIyMjN7eXtRot9ubmppiY2MtFst///vfn/3sZxs2bBgaGlKr1XV1dc3Nzf/+978LCgrQ/mc7duy4detWdXX1tm3b6DqZXw8mUzuh43n1o6enZ/bs2TwejwrbgwcPNm7cOHv2bKes8xSzUPnbUN4yJI/WHCkZKpN9eno6h8PJyso6cODAuXPn7t69azKZnH6OORkcJocUVuHg76tXr+rr60UikdVqRUyNds+i59oOBxzMZrNUKn333Xe3bNnidH0FzH2bzSaTyWbOnNnQ0EANqtVqMQyjP68iSZLKhIXu3tBvoN7e3h07dlRXV9fU1OTm5v7973/HcRzteItyrVA6WVFhDVOTJFlZWcnhcORyudFotNvtSqUyLS2tsrLSCWiKWZyYmvpVO946NVo52bt3b2Zm5vLly7OysuRyeXt7u06n89UrR06msuKQwpMV1k7TyKdPn+7bt6+1tZXK+ffw4cONGzc2NTVNUzOLumu1WolEsnDhwpqamuCuEuh0Oh6Pl5KS0tHRQRCE0WgUi8UpKSlOeRbHY+p9+/ZR2XoJgqitrf3tb39LBWIKL4xRfQNfYRNTj4yMKJXKdevW8Xg8kUi0bt26U6dOjYyMOKFGMYsTU/f39+fk5KC/z5SMU190qNfru7q6Tp06VVRUxOPxVq5cKRaLz507R38G7bZjSDZ6xirEXHY4HP39/WhDayrrqV6vn876LLsgam9vT0lJycrKunTpkuvFFXhfUNZvDocjFAp5PN5HH33kuo+7W6bu7+8vKCg4e/YsSZI6na6zs1OtVi9btgytWSsUCmDqKUbT8+oHUupwOIaGhtALlYODg66rE1arVSQSpaWlDQ0Nob379Hp9UVFRUlLSnTt3rl+/npycXFNTk5WVlZaWdvHiRQ+2ov3Z0HBfffVVVlZWXFxcenp6U1NT+Fy34/3+8IBbyJyimDpkPPLsCMo6m5KS8sc//pFRM9xms1HvUKM/onRHqF3QFApFW1tbZmZmTk5OY2Ojw+E4f/78j3/849TU1IqKCqPRaLPZdu3alZiYmJuby7ofSQy6p9aPFXoMGFgXCoULFixAmfLv3r1rNpvRpnkMNNVXJoXVPTUdtLBiapvNdvr06cjIyKqqKvgijD4NGFJnEFMzBJEJzUC7TwkEguXLl/P5fKVSeevWrQl7sVcAmJq9sfPScoIgqqqqIiMjpVJpOD+S8RKuoIgBU08RdpPJ1NXVJZfL08YKE3ZonaInE3UDpp4IIXafJwhCKpWiu2mgacbGEph6WqGx2+2Dg4MtLS0rV65MTEwsKSkJvde5gKmnNUWY3dlms1VVVb333nsNDQ2w6MHkWAFT+yY66GkMyiajVqtDaf0amNo3U4R5WmBtmnkxGdciYOpxoZnCCZShkVq/pj7SmYIq5nQBpmZOLHxrSWNjI6xN+xZS/2kDpvY9ttT6NY/HC4E0jMDUvp8iDNCI3puuqqqCtWkGRGNiE4CpJ8ZoChJo/To/Pz8+Pr6oqIhRb6dO1h1g6skixnx5rVabkpJSXFwMa9PMDxayEJjav5HSaDTr169fsmTJzZs3WXpVAFP7d4oEXLvZbP7ss8/Wrl3L6huIgMMW5AGBqf0eAKPRuHfvXg6Hc+zYMTauXANT+32KBHYAiUQCO/kGFnIfjAZM7QMQJ1RBEERHR8eSJUuEQqFGo5lCFvYJh/CfADC1/7ANvGaFQhEbG/vXv/6VCTk9Au8+e0cEpg5c7AYGBj777LP4+HiUqo0aWCgUMnktG5iaihTbKxqNJikp6ejRo+y6V2A77D6xH5jaJzBOQsnBgwejo6N///vfm0ymq1evJiQkYBiWkJDglMhxEhr9LApM7WeAA6Qe5ZLMz88P0HgwjE8RAKb2KZzeKVMoFCj/NYfDwd4UuVzumhrQO33+lQKm9i++AdFut9tR5oOhoaGADAiD+BgBYGofA+qNOoPBsHTp0jcU/f//53A4g4OD3nQPsAwwdYAB98dwV69eTUtLUyqVIZ/60R/oMUEnMHUQovCvf/3LiabRYUtLSxCsmWhIYOqJEGLoeaFQmJeXp9frSZLk8/nbt2+Hp4gMDZUXZgFTewGSH0RaW1vj4+NnzpxJp+wVK1b4YajpqgSmni6CwehvtVqpqbVixYof/ehH33zzTTAMgTF9gwAwtW9wnKyW0dFRjUbD4/GcyBrdAU1Wm1/lgan9Cq+flOM4TjE1hmGxsbE4juv1elj98BPg/lYLTO1vhD3p1+l0a9eupV9ReXl5njoE4xwwdTBQn+6YeXl59HmFYVhkZOTRo0dfvHgxXdXQPxgIAFP7GPXGseKNUr1ej+O4wWA4ffo0dVElJSUZDAbX7jiOe5nsSaPR4DjuqsG1xWq1ovss11P0FsTUJ06caGxspLePV0d+eZmnO4h+Ifs9xMtpdy52+cXlcqlJhSo5OTl37tx5/fr1eIGDdiYjAEzt4+jgY8Ubpb29vTKZzGKxoGzuMTExGIbNnj372LFjrt1lMpmXO6Or1WqZTOaqwbXFYrHIZLLe3l7XU/QWxNQymczLPwCUX3Ql49WD6BcyyUO8nJiaRX41NzfHxsbSmTo9Pd3tHcB4cYF2piEATO3jiHi48p1Gol/5BEGoVKqUlBQMwwoKClw3YA4iowFTo8DR4+UUStfDIMaLJMmKioqIiAiKqRMSEoCmXWPErhZgah/Ha2pMjYzQarXJycmun5uTJBnEKx+YGkWHLUxNEIRQKKRoOikpSaVS+XiWg7qAIwBM7QPIGxsbEUHjOC4cK9ShQqGg386gtU509tChQ5s2baqurqaEtVptX18fn88/cuSIzWaj2nEc37RpU3FxMdXS1NRET1mJ1qbR2eLi4k2bNlGSOI739PRQTqK1aXS2urp606ZNhw4dooTb2troqVmRXyKRKC0tbdOmTUKhkJKcrF+UASRJUkqC6xcyw0O84uLiqqqqKGvdxos5fhkMBoVCgeN4eXk5/dvXzZs319bWevmMge4O1BmFADC1D8LhQ6YmSdJkMjU1NdEpNbiMFrZMnZ6eTtE0juNsYWqRSIRuqOPj40tLS5ELwNQ+uM6DqgKY2sfwowvDG6Vs+TUdtqsfTkFkRbwcDsepU6cQUysUCicX4JC9CABT+zh2wNSsYDQq6iEWr6dPnxYVFSGmpnyESgggAEzt4yCG2JVPkiTcU6Mpwoq/QEajMSoqSiKRJCQk+Hhmg7qgIgBM7QP45XJ52ZuSM1beHHn6v7CwMDs7WyKReBJ6cy47Ozs/P//Nkaf/8/Pzs7OzPUm8OSeRSLKzswsLC980uP+fz9KAYWcAAADBSURBVOcnJydnZ2fn5OS4l3i7lS1+IatDLF47d+5MSEgoLCyMiYl5OyyTOGJmpjAfXKhsVgFM7YPolZeXfwoFEAgVBL744gsfXBWgwqcIAFP7FE5QBggAAoCAHxAApvYDqKASEAAEAAGfIgBM7VM4QRkgAAgAAn5AAJjaD6CCSkAAEAAEfIoAMLVP4QRlgAAgAAj4AQFgaj+ACioBAUAAEPApAsDUPoUTlAECgAAg4AcEgKn9ACqoBAQAAUDApwj8P8s+5pHJ7J9TAAAAAElFTkSuQmCC;" vertex="1" parent="100">
                    <mxGeometry x="13.5" y="30" width="483" height="115" as="geometry"/>
                </mxCell>
                <mxCell id="171" value="\[\vec{E}_{induced}=\frac{\sigma_{induced}}{\varepsilon}\]" style="rounded=1;whiteSpace=wrap;html=1;shadow=0;labelBackgroundColor=none;strokeColor=none;strokeWidth=3;fontFamily=Helvetica;fontSize=14;align=center;spacing=5;fontStyle=0;arcSize=7;perimeterSpacing=2;fontColor=#000000;fillColor=#f5af58;" vertex="1" parent="100">
                    <mxGeometry x="15" y="150" width="485" height="50" as="geometry"/>
                </mxCell>
                <mxCell id="172" value="\[\vec{E}_{net}=\vec{E}_{free}+\vec{E}_{induced}&lt;br&gt;\]" style="rounded=1;whiteSpace=wrap;html=1;shadow=0;labelBackgroundColor=none;strokeColor=none;strokeWidth=3;fontFamily=Helvetica;fontSize=14;align=center;spacing=5;fontStyle=0;arcSize=7;perimeterSpacing=2;fontColor=#000000;fillColor=#f5af58;" vertex="1" parent="100">
                    <mxGeometry x="15" y="210" width="485" height="50" as="geometry"/>
                </mxCell>
                <mxCell id="107" value="" style="edgeStyle=none;rounded=0;jumpStyle=none;html=1;shadow=0;labelBackgroundColor=none;startArrow=none;startFill=0;endArrow=classic;endFill=1;jettySize=auto;orthogonalLoop=1;strokeColor=#F08705;strokeWidth=3;fontFamily=Helvetica;fontSize=14;fontColor=#FFFFFF;spacing=5;entryX=0.5;entryY=1;entryDx=0;entryDy=0;exitX=0.5;exitY=0;exitDx=0;exitDy=0;" parent="1" source="10" target="168" edge="1">
                    <mxGeometry relative="1" as="geometry">
                        <mxPoint x="1407.25" y="390" as="targetPoint"/>
                        <mxPoint x="1205.5" y="683" as="sourcePoint"/>
                    </mxGeometry>
                </mxCell>
                <mxCell id="108" value="" style="edgeStyle=none;rounded=0;jumpStyle=none;html=1;shadow=0;labelBackgroundColor=none;startArrow=none;startFill=0;endArrow=classic;endFill=1;jettySize=auto;orthogonalLoop=1;strokeColor=#F08705;strokeWidth=3;fontFamily=Helvetica;fontSize=14;fontColor=#FFFFFF;spacing=5;entryX=0.75;entryY=1;entryDx=0;entryDy=0;exitX=0;exitY=0;exitDx=0;exitDy=0;" parent="1" source="10" target="100" edge="1">
                    <mxGeometry relative="1" as="geometry">
                        <mxPoint x="978.9999999999998" y="330" as="targetPoint"/>
                        <mxPoint x="1128.5" y="683" as="sourcePoint"/>
                    </mxGeometry>
                </mxCell>
                <mxCell id="17" value="Capacitor" style="swimlane;gradientColor=none;strokeColor=#61C6CE;startSize=23;fillColor=#00BFBF;fontColor=#000000;" parent="1" vertex="1">
                    <mxGeometry x="1610" y="440" width="430" height="110" as="geometry"/>
                </mxCell>
                <mxCell id="18" value="A capacitor is a device for storing charge. Capacitors consist of two conductors separated by an insulator (dielectric)." style="rounded=1;whiteSpace=wrap;html=1;shadow=0;labelBackgroundColor=none;strokeColor=none;strokeWidth=3;fillColor=#61c6ce;fontFamily=Helvetica;fontSize=14;align=center;spacing=5;fontStyle=0;arcSize=7;perimeterSpacing=2;fontColor=#000000;" parent="17" vertex="1">
                    <mxGeometry x="9" y="30" width="411" height="70" as="geometry"/>
                </mxCell>
                <mxCell id="135" value="Capacitors in Parallel" style="swimlane;gradientColor=none;startSize=23;fontColor=#000000;fillColor=#DE7A73;strokeColor=#DE7A73;" parent="1" vertex="1">
                    <mxGeometry x="340" y="897.5" width="300" height="343" as="geometry"/>
                </mxCell>
                <mxCell id="137" value="\[C_{total}=\sum C\]" style="rounded=1;whiteSpace=wrap;html=1;shadow=0;labelBackgroundColor=none;strokeColor=none;strokeWidth=3;fontFamily=Helvetica;fontSize=14;align=center;spacing=5;fontStyle=0;arcSize=7;perimeterSpacing=2;fontColor=#000000;fillColor=#f08e81;" parent="135" vertex="1">
                    <mxGeometry x="8.5" y="294" width="283" height="40" as="geometry"/>
                </mxCell>
                <mxCell id="162" value="" style="shape=image;verticalLabelPosition=bottom;labelBackgroundColor=#ffffff;verticalAlign=top;aspect=fixed;imageAspect=0;image=data:image/png,iVBORw0KGgoAAAANSUhEUgAAAP8AAAD/CAIAAACxapedAAAgAElEQVR4Ae2da3AUx7XHe3dZQaxgYgOWbN0ApgAhG0UYSIAUcSVxKDmOYz445joPXOVUUhUXiHIekglR4QC2eaRsTMA3CIFNWcGScXCIefoFhcAlCSSEgiTQAywDQkiWQEgLq92dx62rE87O3Zd2ZrtnR9ozH1atnu7T0//+dU93T08PU+mIqICiKLIsK4rS09NTX19/+fLl9v7jwoULzc3NkiRhAFmWm5qaampqenp6VFWVJOnixYuff/55e3t7R0fH5cuXwd3e3n758uWzZ8+6XK6Wlpbq6urr16+rqqooyuXLl8+fPw/hW1tbL1y4cPXq1fb29ra2ttra2gsXLkDSFy9erKurq+4/vvzyS7j8vr6+8+fPn+o/zp8/DxEvX75cX1/f09ODFxkxrwl3kiVcjvVnWOk/VFXt7Oysr6+v7T+am5vdbreqqlA34FdV1ba2ttOnT1dUVJw8ebKurq6hoQHCnz17tqGhoa6urra2tr6+vqurCy6kvb29pqamoqLixIkTAeEbGxsx/KVLl5qbm8+cOVNbW3vu3DmoYFevXj1z5kxFRUV5eXlVVVVDQ4PL5VIUpaWlpba2tq6urr6+HqoHZkF/7odyDKJ/gNJVFAUaZnAEhEaqwIFhsDIEhNf+i3GxCmnPDujGtKBdx/Dor/UBz+BTGCYxHUT/wOWO6CDi6IDISFWwP/pEdqCdyMFCno0mLlTggbOaYCGI/oELHJjDO4AWQaRK6xmlO6TBKOPqCoYJDZzVBAtB9CdYgVN2NQoQ/RoxLODUNuowoYQ+Fri6oXYJRL+QEkVkZVn29R8wDgb/cEniWUmSMAy48RT6kyN2BYj+2DUMtKAdBGvPybIM/2IA7Vl0w1m3211XV+dyuWBGCM+Sg6MCRD9HMf2mcBbyxo0b27dv/+tf/9rS0jLgzKaiKNDSl5aWTp06dcSIEZMmTTp06BA8O4tcZ/xpkytqBYj+qKWKOiCgL8tyR0fH9OnTWf8xevToEydOAN/hOJb7j56enq9//euMMbvdzhgbPXp0Z2cnVqeor4ICDqwA0T+wRnpDKIri8/lUVV2/fj1jzOl0JiUlMcYWLFigqqrP5wtHPzT81dXVjDGbzYa/x48fh4jhrgRHBcGOcFHIX1VVop8/BrIse71eRVEWL15ss9kcDoet/5g9ezbQiQOAgLShYlRWVsLtAn+PHj2KnSJtFLAGv5IkeW8fPp+P5ou0QoVzE/3hlDHuj21/Tk4OdGCgDzNnzpzID56g7a+qqkLuwVFaWgpdf+01YTMPsbSnwA39qMgpBsdKKB+in39xB9DvcDi09EdYAhQ9/dh3giiyLB89enTt2rVLly59/vnnN27cWFVVhXUAHBiFf4YHrUWin3/RRaYf2+zghKOnH1p0GF2UlpbOnTs34HbBGHvyySfb2tpovihYZ/Qh+lEKbg7R9GNHX1XVQ4cOfeUrX2GMzZs3b+vWraWlpQcPHly3bt2ECRMYY1lZWV1dXZIkRbjhcMv2IDRE9PMvNNH0Q3Muy3Jra+s999zDGMvLywvo2HR0dMyZM4cx9rvf/S7yRBP//A8ei0Q//7ISTT/az8vLY4zNnz8fnqN5PB5Jknw+H7x2U1ZWBt2h9vZ2elwQspiJ/pCyxOSJdMKcT8CoN/Z+P3Rj3G73/fffzxjbv3+/oigwxwp3AGBdkqRt27atX78eXu8KN80aU1YHeWSin38BiqYfBsf//ve/7Xb7yJEjr169ik17uKoV0C/in+fBaZHo519uoumHh2KffPIJY+yBBx7weDwBk/p4B/D5fHBPgAD8szrILRL9/AtQNP1er1dV1QMHDjDGZs2aBWRrOzZwB4DL8Hq9cIqa/+CSJvqDNYnVRzT90PaXlpbCnKZ2VxXtpRPuWjVCuon+kLLE5Cmafuj319bW2u32u+66q6urK6Dfj73/d99996WXXmpubsYAMWVsyEUm+vkXqWj6Yc7H4/FMnDiRMfbJJ5/gujpo72VZliSpp6cnOTmZMVZZWRl5iSh/CQaJRaKff0GJph/mN1VVXbp0KWPs8ccfB7gD5vsLCwvtdvvMmTN9Ph+ueOOf28FskejnX3qi6celO83NzXfccQdjbPXq1QHZqKysTE1NZYy98847+KwXR8M0BQRyEf0B2HD4VzT9ADH0/ouLi+GB7vz587dv3/7pp5/u3bs3Nzd3+PDhjLHnnnsOqwoRH1y0RH+wJrH6iKYfrg/fd9mzZ09GRkbAGs8777zzlVde0aIPtYUmQLWlS/Rr1eDjNoF+nM0Epm/evLl3794VK1bk5OS88MIL77zzTmtrq/Ylepjyv379+o9+9CPYQFf7fIBPtgehFaKff6GZQD90Y6AOQAUIzga+3AhzRGvXrp00adKoUaO6u7vhnhAcJdF8iH7+JW4O/VgBYBgAixrwF4jHYa4sy8eOHXvrrbfS09Op7cciJ/pRCm4O0+jHK4abALIePMCF+0NHR8fUqVM7OztphyyQjuhHhLg5zKc/wqVDlYDnX42NjdT2a7Ui+rVq8HFbin7IEoxxz58//+CDD1LPB4uZ6EcpuDksSD/0fBobG1NTU+Fll3BjZW4qDAZDg55+uLPjEDC4y2t+KViQfmj7Ozs7169ff/PmTSuoZH65BKc4FOiHssSNwmFNSxx/JUnyeDyyLC9ZsoTLblZHjhzx+Xx9fX2QR8O/uAbOsAWMCNUJm55gsAaFz6Cn38rN2PPPP88Yi/29XtyaylJI4RM3S12VrosZ9PTDxLbL5frDH/6wZs2aCxcuNDU1Ncf1aGpqamhoaGlpeeaZZ7i0/WvXrt23b9+ePXs+iPexd+/eDz74YO/evfCNYRBfF3CWCjzo6Yf9zP71r3/BQpfhljlGjBjhcDjgqrQ7GUboLcBINHgfz4A1PFb4d968ebBwelDfAQY9/fDWdklJicPhcDqdViAj+BqGGP12u/3OO++EL2YP6vVCg55+aPt37doFfYxly5Zt2bJl8+bN/xO/44033ti0aVNBQcF3v/td2IM/Rvo3bdpUWlp65MiR0vgdR48ePXz4cGlp6c9+9jPGWGpqam9vb4T7mKV6OOEuZkjRb7PZzp49Gy6r5vv//ve/5zLqPXnypPkXHy7F/Px8pN/KUw7hrl/rP6Tot9vt5eXlXCYHcWrPgMPr9brdbp/Pt3jxYi6j3iNHjsAsqhS/A1SVJCk3N5cxlpKS0tvbS/Rr61Ic3AE9H2gm4/sg04JPu2IvGMzUCy+8QG1/7HrysUD089FxICtE/0AKxeM80W+O6kS/OTrrS4Xo16eX0dBEv1HlRMYj+kWq67dN9Pu1sI6L6DenLIh+c3TWlwrRr08vo6GJfqPKiYxH9ItU12+b6PdrYR0X0W9OWRD95uisLxWiX59eRkMT/UaVExmP6Beprt820e/Xwjouot+csiD6zdFZXypEvz69jIYm+o0qJzIe0S9SXb9tot+vhXVcRL85ZUH0m6OzvlSIfn16GQ1N9BtVTmQ8ol+kun7bRL9fC+u4iH5zyoLoN0dnfakQ/fr0Mhqa6DeqnMh4RL9Idf22iX6/FtZxEf3mlAXRb47O+lIh+vXpZTQ00W9UOZHxiH6R6vptE/1+LazjIvrNKQui3xyd9aVC9OvTy2hoot+ociLjDTr6I+z6HW4P59LS0rh/YZfoF0mxUdsWpF+WZZ/PpygKfrvFZrMxxmbPng3bvobb9xhiVVZWBuwCffToUUVRLLJBHe3lZhRVAfGsSb/X61VVFba8TEpKcjqddrv9O9/5DjTh4egHvqurq2H3T/w9fvy4qqqQUwESRmWS2v6oZDI5kAXph3ZaUZQTJ07A3uXQlhcUFABD4b74AN8ac7lcEyZMQPTHjh3b1dWlKEq4OmOO4ES/OTrrS8WC9MPOxgDrRx99lJ2dPXfu3C1btsAX0sOhD7Gg+T9+/HhmZmZSUlJGRsbHH38Md4wIEfVJZig00W9INsGRLEg/YhrQWqM/OkJqA7E8Hk9TU5Pb7YY6EzKkmZ5Ev5lqR5uWBemHVhwQhw33cRwc+WMneFY7wAU3nopWF97hiH7eivKwZ036sQIAtdrfyJnWhoS5UfSJHFH0WaJftMJG7FuWfiOZsXAcot+KhUP0m1MqRL85OutLhejXp5fR0ES/UeVExiP6Rarrt030+7WwjovoN6csiH5zdNaXylCiH6d34KEvzJmCpz5RBIQm+gWIGrNJC9Kvhdjr9cLaNfQMl2NkHSf7cXVD5Kdj4Qzy9Sf6+erJx5rV6EdSQz7oxbMhM4/NfEdHR3NzM4TBWhEyimmeRL9pUutIyGr0axf5NDQ0bNiwobi4GJZ8BtSHgEziGuY1a9aMHj06KSkpOzu7ra0NekEBgc3/l+g3X/OBU7Qa/UCJoigfffRRcnIyrO585JFHXC5XZI4hI59++ilEgVcCfvGLX8Da5sg3jYFlijkE0R+zhAIMWI1+WZYlSVIUZc6cOYwxWNzPGPv73/8eeY2+1+tVFGXVqlU2m23YsGH2/mPKlCnR3DcE6BpokugPVMQK/1uNfmik3W73pEmTGGM2m83hcNjt9tWrVyuKAiiH1A0Gx6tWrYKV/fBiQHp6el9fH44HQkY0x5PoN0dnfalYkH5FUW7dujV58mTowwDHL7/8cuS2HzIC9EOFYYylp6d7PJ5w9KM/zA5BzypgbRyvLhPRr49Lc0JbkH5VVd1uN9APbT9jLBb6YSQdoCegD2NlnCTFMHAnwaWm6G/YQfQblk5gxMSkH6dBkfuenp6WlpampqYrV66g3DjLFPsdgOhHVS3kSED6A9AvLy//+c9/fs899+Bk0YwZMzZu3AgVAyoA0R8SWRbSdxB5JiD90J+BjL/66qswNzp69OhHH330iSeeyMzMhGqQnZ3d09MTeZo1+oKmtj96rcwLmWj0Q3cfcv32228zxhwOx7p167q7u1H0Y8eOZWRkMMZ++ctf4hvxMTb/RD/KayFHotGPNLe3t48ZM4YxBrtFgD+8Rqyqam1t7YgRIxhjJ0+ejDzXFGVZEv1RCmVqsESjHx8abNy4kTH27W9/W1VVr9cLj9hg6tPj8aiqmpOTk5aW9tZbbwG41PYHc0n9/mBNYvIByMTNeOJyoMcff5wx9tprr0F9wAlQcMBg1+PxYK0g+oPLlegP1iQmHxPoh04OPE/48MMPsU+ivW6oA1qfGN2YCu3jGaOSPKMnWs8HHuX29vampqYyxiorK3EkALIi99ALgtqInoalJ/oNSycwYgLSD8+S09LSGGPV1dXB9IuQm+gXoWqsNhONfmjFFUV58MEHGWOHDx9GLlFKCOP1etvb23t6erisd8BUqOeDOsffkYD0Q5afeuopxtjrr78ePOqFxdLr1q1LTk5evnw5BoiltIj+WNQTFTcB6Ydl0ps3b4YvYsCMJ749LEkS0J+VlcUYKy4uhgA05xOMIM35BGsSk4/oOR/cBr2jowOedm3atAmuWDu03bJlC2Ns/PjxvBY7UNsfExaCIidg248gvvnmm/AqzKpVq1pbW6HiXbt2bePGjU6nkzG2e/dufDHSd/vAWSBdJYKJUr9fl25iAyca/aAmsrh27VpY5TZ8+PCsrKxZs2aNGjWKMeZ0Ov/2t78FTAdhSRioAJgi0Y8yxt+RgPQju7CGuby8/Nlnnx03bpyj/5g4ceJvfvObmpoaQB9f9SosLFy8eHFhYSH44NL/KIuQ6I9SKFODJSD9+KoXrnpQVbWvr+/LL7/s6uoCQbDVh3+XLFmSmZm5efPmmTNnahd+Rl9URH/0WpkXMjHpxyl8qABIPOju8/lgeQ808y6Xa9KkSU1NTaqqtra2jh07FpZD62r+iX7zmI4+pYSlHyTCh1/4YrvWB9wej+fs2bPQTXr11VczMzO9Xq/et16I/uiZNC9kgtMfjdAwTujs7PzVr341ZcqUqqoquGOAfzQWtG+T0ag3SsXMCEb0R1AZBwbl5eUPPPBAbm5uX1+fsY9AUtsfQee4nSL6I0gP3Ru32z1t2rQdO3aoqnrz5k2Xy4W9owhxA04R/QGCWOJfoj9CMUBfv7Gx8b777nv44YdnzZo1Y8aMxx57rKenB8YJEeIGnCL6/YJA4wHdQXiXNF6/fX19kiSVlJTAtoEVFRWSJME7TXG5JJhvgWkW2FvB4XAY2M0KnmFNmTLl1q1bkiSBWWM56uvra29v/+KLLy5dunTx4sXW1lZ4E1KXNZ/PB1Ln5uYyxlJSUrq7u2O8MF0XMGBg3Lsl+vFMTOt8ok/GX2/EuPbs2QPP/M+cOSMmBd1Wp0yZgvt4GqAf9j+cOnWq7oQFR8jPz2eM3XvvvbomTAVf1H/MA5DRY2mQfmz7fT5fTU1NdfyOysrKmpqa9evXA2o7d+48ffp0VVVVvK7o1KlT1dXVFRUV48aNi73tnzBhwvHjx8vLy8vKyspjOMr+/2HAUllZ2WeffVZRUbFo0SLG2N13333kyJHYL8zAlYSMUlZWduPGDb0DeuP0w5OUp556yul0JiUlDYvf4XQ6oaWEzW3idyH/L2VAHy7JQNuP0ckRpQLf/OY3b968qes5Rqz0z5o1K8qLS9hgxvr9CSuX4YzDcm5do/mY6FdV9cqVK0VxPXbs2FFUVLRkyRLo+axcubKoqAg843Jdb7/9dlFR0fbt21NSUqAgjdEPo960tLSSkpJd/cd7cT127dpVUlLyj3/8Y8GCBYyxUaNGFRUVvffee7t27Yrrdf0n8XfffbelpQVffohymGGQfrAe/fAiyqsxHGz//v0w6j137pxhI3wjpqenxz7qzcjI4HtVsVtbsWIFjHpjN8Xdgl4gDdKPo15Zlm+/NRGfv2632+fzFRcXA2plZWUwNxefq/H54BOlvb298O0Ww/1+nPG8efOm77bZeGUKLgCkxhnP69evW+HCUBNcyx19HTBIP/daa9ggPe0yLJ2uiPS0S5dcJgUm+s0Rmug3R2d9qRD9+vQyGproN6qcyHhEv0h1/baJfr8W1nER/eaUBdFvjs76UiH69ellNDTRb1Q5kfGIfpHq+m0T/X4trOMi+s0pC6LfHJ31pUL069PLaGii36hyIuMR/SLV9dsm+v1aWMdF9JtTFkS/OTrrS4Xo16eX0dBEv1HlRMYj+kWq67dN9Pu1sI6L6DenLIh+c3TWlwrRr08vo6GJfqPKiYxH9ItU12+b6PdrYR0X0W9OWRD95uisLxWiX59eRkMT/UaVExmP6Beprt820e/Xwjouot+csiD6zdFZXypEvz69jIYm+o0qJzIe0S9SXb9tot+vhXVcRL85ZUH0m6OzvlSIfn16GQ1N9BtVTmQ8C9KvKIrb7Z48eTJssAU77L788svw2fRwYkBGVq1aBZvSQaz09HSPx4N7h4WLa4I/0W+CyLqTsCD9qqreunUL6Me93FavXo0Ahcykz+dTFGXlypUB9MOXtqLfnyyk8dg98eLpq3Wxi8nNgtXoh/30JElKT0+32+3Dhg1LSkpijL322muqqnq93nA593q9iqKsWrXKZrMNGzbM3n9MmTIFosT9UxFEf7iCi6e/1ehHSl588UXcjDs5ObmxsRG/oBhSL8jI4cOHMRZjbNGiRdBforY/pGgxetI+njEKGBgd+uiwue+aNWtmz5792GOPHTt2TFVV+H56YITb/2PdWLNmzZgxY+64445HH320ra1NlmX4+NztgPH5i7Waej7xKYCQqVqt7YeLDG6qo+m64Oi2vb29ublZayrYYEg1xHkS/eK0NW7ZavQjwYALfEoEGm88FTK3wDfeAeB7mPgdwpBRzPQk+s1UO9q0rEY/XDeijMSjI0LGIAxUGBg9Qx2Ie8MPlwFSU88nQgmafcqa9Jutgvj0qO0Xr7H+FIh+/ZoZiUH0G1FNdByiX7TCYJ/oN0dnfakQ/fr0Mhqa6DeqnMh4RL9Idf22iX6/FtZxEf3mlAXRb47O+lIh+vXpZTQ00W9UOZHxiH6R6vptE/1+LazjIvrNKQui3xyd9aVC9OvTy2hoot+ociLjEf0i1fXbJvr9WljHZU36cVUPLt2BpTKRdcPAkiT5+g/0iRzRhLNEvwki607CgvQj+pIkwSJNeGsxcgXApWwBa6FxwZxuabhGIPq5ysnJmNXoDwcxoo8BggWA1Z2qqu7bt2/58uU7d+6ElZ4B9SE4ogk+RL8JIutOwmr0A+WwoH///v0PP/zwjBkzXnrpJbgPROAYV/bDtg7wfuMzzzwD73aFqzN4Z4AbDtQW7C+Fi6VbZVUl+g2IJjyK1egHShRFOXXqlMPhwJd0X3nlFXirPRyRAG5HR0dycrLNZnM6nbCpyalTp+CtyAApEXF4i1J7FoYN2oqhPWvMTfQb001sLAvSD7sw/PnPf2aMJSUlwQYN06dPx9dWQioCt4v6+nqn0wl1xtZ/7Nu3D8nDiFiFtK/8ulyu7u5uj8cDwbTvx2BEww68Bnq7xbCG/CNajX5oiRVF+eMf/wg789hsNsbYtGnToNuD4AZoAbCeO3cO6IdYjLGDBw8GbIWCjTqg//nnny9fvvyhhx5KTk5OSkq69957FyxY8P7770MfLHKiAdcQ4V+iP4I4cTtlNfoVRYG2f/ny5bCVFXRgMjMzsa8SUizAVEs/VACgH7KJEZHF4uLiu+66C+4VGRkZWVlZd999N/z77LPP+nw+nHfCuMYcmCK1/cYEFBLLgvTDJYWkH2d+grWIkn6oQpDEgQMHoIbk5OQ0NzfDreDGjRslJSWpqamMsby8PNxJJdw9J/hKQvoQ/SFlibNnotGvqqrcf3R3d48fP54xtnLlSigDqBjgLi0thXFzfX19yEGz3mIj+vUqZkb4RKMfe1bbtm1jjGVlZcFIAx6owcAaBr5PP/10UlLS1q1bIQq1/cE40l5uwZrE5INtpLieD1T4J5980mazaSdScVwBdcDtdl+5cqW3txf9Y8kY5ov6/bHIyDluArb9AHdGRgZjbP/+/ciltnXXurkojqkQ/Vz05GMk0eiHwbHL5YJx7cmTJ3FcC4Ji7x8eHkM1QE/DohP9hqUTGDEB6VcU5datW/fddx9j7PTp08H0YzVA3WO/FRD9KKaFHIlGP7blU6dOZYwdPXoUudSWCgTz+Xxwr4gw06qNFcGNqVDPJ4JKZp9KQPphXv+JJ55gjG3ZsgWndHB0Cx/CKCgomDBhAn4zJsbmn+g3m+xo0ktA+uFZ8l/+8hfG2COPPKKqqsfjgY8DwIAYAsyZM4cxVlhYGHl1XTQiw60DpKa2P0rFzAiWaPRjL/+LL7746le/arPZSkpK4BGYdPtQVXX37t12u33s2LGdnZ1QJWIsDGr7YxRQSPREox+6N5DrtWvXMsZGjhz55ptvut1u0FeW5d27d8Nqn4KCAvzwESx7xluE3o4Q0S8E3xiNJhr9iDhkPCcnB9a0jR8//sc//vFPfvITeA7AGMvPz8cbhZZ1Y+Ngoj9GUIVET0D6AWXsz7z//vs/+MEP4MuQjLERI0b88Ic/PHToEKCPq/wPHTr0+uuvw/MBA9P/RL8QfGM0moD04/QlVgBVVdva2urq6s6ePdvR0QGSAvcwQbR06dKZM2f+9re/TUtL27lzJ6CsvSEMWApE/4ASxSFAwtKP85vaSX3kHvr30Mm5cuXK1KlTr127pqrq1q1b582bB4MB7AJFU2xEfzQqmR0mMekHlbECwE0ApnygydeeunXrVmtr640bN/bt25ednV1QUEBtPwhIazw5V1dsIwWt8dR7udi9aWhoyM7O/trXvlZUVISj4eitYb5ovj960YSHTOS2f0Bx4Q7Q1dXV2NgIgY8dO5aamupyubRjhgHt0NOuaCSKQxiiP4LoMOQtKytLTU2FB8DHjx+fOHFiX18f0a+qKvV8IsBj5BT2EKzQ84FFzrIsL1q06Fvf+tZzzz13//33b9u2jXo+ULRDjf4TJ07gkE478jPNLcsyLDLDHU20ezrgZGVwxYIZGNzTgTEGb6wfOHAgeB1blNmB5KDr//HHH+/YsaOhoUHrGaUduFFAvvLy8hhjKSkpvb29EbITnEEL+gxu+hH0kpIS2DynvLxckiRY9XV72Yupf30+X19fnyRJy5Ytg0syTD88xN23b5/X63W73bCrs4Ffb/+B8PX19Rkz4na7vV5vbm4u0Y9ixtkBDdI///lPaCxra2vjfEG3k3/xxReD9/OJ0FgGtP2wkRtj7NixY7dNWuIv5Cs1NZXa/jiXB3ayN2zYYLfbnU7n/Pnzn3766YULF/53/I6FCxf+9Kc/xfU2Mbb9CxcuzM/Pz8vLWxbvIy8vLz8/f+7cuTabLSUlpaenBzpOcYYghuQHd88HnuzIsjx58mToJ1jwN0b6LZgjxlhycjK0/boeGMcAqpCog5t+fHH7jTfeyMzM/MY3vvGQBY7p06c/9NBDKSkpAG6M9I8ZM2bcuHFpaWn/ZY0jLS1t5MiRCxcuhE218GmaEDwFGx3c9EfoRgvWLZJ5AOJPf/pTLP1+nPN57733uru7Ozo6rlnmuHTpEjT5gxr9QT/fD+rjHSD6+TtxIXnNeOIezh9++KGVK/mgrgBDpO0XR7Ney7zox+7+gQMHZFn2eDzQ07DIL7Y7RH+kbkCincNpKCs860008fXmd9C3/XozLDo80S9aYY72iX6OYv6fKaKfs6AizRH9nNUl+jkLKtIc0c9ZXaKfs6AizRH9nNUl+jkLKtIc0c9ZXaKfs6AizRH9nNUl+jkLKtIc0c9ZXaKfs6AizRH9nNUl+jkLKtIc0c9ZXaKfs6AizRH9nNUl+jkLKtIc0c9ZXaKfs6AizRH9nNUl+jkLKtIc0c9ZXaKfs6AizRH9nNUl+jkLKtIc0c9ZXaKfs6AizRH9nNUl+jkLKtIc0c9ZXaKfs6AizRH9nNUl+jkLKtIc0c9ZXaKfs6AizRH9nNUl+jkLKtIc0c9ZXaKfs6AizRH9nNUl+jkLKio1P6kAAAIMSURBVNIc0c9ZXaKfs6AizRH9nNUl+jkLKtIc0c9Z3cj0w76IIZMM9/WKgwcPwselQ8Yiz1gUIPpjUS9E3AD67f0HYywzMxO/Ix0imqrCWfxuF+5iS/SHlIuLJ9HPRUa/EdzFdtmyZXa73eFwwDeIpk2bBhu+hvvcgyRJiqLU19c7nU7YwhYi7t+/H2uUPxly8VCA6OehosYGklpYWMgYczqdw4cPZ4xlZ2dH/k4o1IrW1takpCSHwzFs2DCHw8EY++yzzyCiJhFy8lGA6Oejo9YKbDLe29v7/e9/H1rxsWPHlpeXQ8UIt+U3fIVAVdVf//rXuH359773Pdy7XJsEubkoQPRzkdFvBPf7hwZ79+7dhYWFly5dUvt79v5woVz4WdwNGzYsWLBgxYoV165diyZiKGPkN7ACRP/AGukKgU07OiA6fuonwB+Ng3/w2XD+GJEchhUg+g1LFzYiTmtCV8fn8w2IPmx9jqDj16SjiRj2OujEQAoQ/QMpZPQ8ooyOaCxhYG0VAs9oolMYXQoQ/brkosBDSgGif0gVJ2VGlwJEvy65KPCQUoDoH1LFSZnRpQDRr0suCjykFCD6h1RxUmZ0KUD065KLAg8pBYj+IVWclBldChD9uuSiwENKAaJ/SBUnZUaXAkS/Lrko8JBSgOgfUsVJmdGlANGvSy4KPKQUIPqHVHFSZnQp8L8w4k5cKVCScwAAAABJRU5ErkJggg==;" vertex="1" parent="135">
                    <mxGeometry x="22.5" y="33" width="255" height="255" as="geometry"/>
                </mxCell>
                <mxCell id="142" value="" style="edgeStyle=none;rounded=1;jumpStyle=none;html=1;shadow=0;labelBackgroundColor=none;startArrow=none;startFill=0;jettySize=auto;orthogonalLoop=1;strokeColor=#E85642;strokeWidth=3;fontFamily=Helvetica;fontSize=14;fontColor=#FFFFFF;spacing=5;fontStyle=1;fillColor=#b0e3e6;entryX=1;entryY=0.25;entryDx=0;entryDy=0;exitX=0.019;exitY=0.906;exitDx=0;exitDy=0;exitPerimeter=0;" parent="1" target="135" edge="1" source="9">
                    <mxGeometry relative="1" as="geometry">
                        <mxPoint x="940" y="1030" as="targetPoint"/>
                        <mxPoint x="860.4999999999995" y="879.9999999999998" as="sourcePoint"/>
                    </mxGeometry>
                </mxCell>
                <mxCell id="163" value="Spherical capacitors" style="swimlane;gradientColor=none;strokeColor=#61C6CE;startSize=23;fillColor=#00BFBF;fontColor=#000000;" vertex="1" parent="1">
                    <mxGeometry x="1670" y="970" width="400" height="100" as="geometry"/>
                </mxCell>
                <mxCell id="164" value="\[C=4\pi\varepsilon r\]" style="rounded=1;whiteSpace=wrap;html=1;shadow=0;labelBackgroundColor=none;strokeColor=none;strokeWidth=3;fillColor=#61c6ce;fontFamily=Helvetica;fontSize=14;align=center;spacing=5;fontStyle=0;arcSize=7;perimeterSpacing=2;fontColor=#000000;" vertex="1" parent="163">
                    <mxGeometry x="9" y="30" width="381" height="60" as="geometry"/>
                </mxCell>
                <mxCell id="166" value="" style="edgeStyle=none;rounded=1;jumpStyle=none;html=1;shadow=0;labelBackgroundColor=none;startArrow=none;startFill=0;jettySize=auto;orthogonalLoop=1;strokeColor=#12AAB5;strokeWidth=3;fontFamily=Helvetica;fontSize=14;fontColor=#FFFFFF;spacing=5;fontStyle=1;fillColor=#b0e3e6;entryX=0;entryY=0.25;entryDx=0;entryDy=0;exitX=1;exitY=0.75;exitDx=0;exitDy=0;" edge="1" parent="1" source="12" target="163">
                    <mxGeometry relative="1" as="geometry">
                        <mxPoint x="1680" y="863.5" as="targetPoint"/>
                        <mxPoint x="1544.616" y="852.184" as="sourcePoint"/>
                    </mxGeometry>
                </mxCell>
                <mxCell id="168" value="Dielectric constant" style="swimlane;gradientColor=none;startSize=23;fontColor=#000000;fillColor=#F0A729;strokeColor=#F0A729;" vertex="1" parent="1">
                    <mxGeometry x="967" y="200" width="380" height="110.5" as="geometry"/>
                </mxCell>
                <mxCell id="167" value="\[\kappa=\frac{\vec{E}_{free}}{\vec{E}}\]" style="rounded=1;whiteSpace=wrap;html=1;shadow=0;labelBackgroundColor=none;strokeColor=none;strokeWidth=3;fontFamily=Helvetica;fontSize=14;align=center;spacing=5;fontStyle=0;arcSize=7;perimeterSpacing=2;fontColor=#000000;fillColor=#f5af58;" vertex="1" parent="168">
                    <mxGeometry x="10" y="30.5" width="360" height="69.5" as="geometry"/>
                </mxCell>
                <mxCell id="173" value="Gauss's law for dielectrics" style="swimlane;gradientColor=none;startSize=23;fontColor=#000000;fillColor=#F0A729;strokeColor=#F0A729;" vertex="1" parent="1">
                    <mxGeometry x="1500" y="209.5" width="380" height="110.5" as="geometry"/>
                </mxCell>
                <mxCell id="174" value="\[\oint_S\vec{E}\cdot\vec{dA}=\frac{\sum Q_{enclosed,\ free}}{\kappa \varepsilon}\]" style="rounded=1;whiteSpace=wrap;html=1;shadow=0;labelBackgroundColor=none;strokeColor=none;strokeWidth=3;fontFamily=Helvetica;fontSize=14;align=center;spacing=5;fontStyle=0;arcSize=7;perimeterSpacing=2;fontColor=#000000;fillColor=#f5af58;" vertex="1" parent="173">
                    <mxGeometry x="10" y="30.5" width="360" height="69.5" as="geometry"/>
                </mxCell>
                <mxCell id="175" value="" style="edgeStyle=none;rounded=0;jumpStyle=none;html=1;shadow=0;labelBackgroundColor=none;startArrow=none;startFill=0;endArrow=classic;endFill=1;jettySize=auto;orthogonalLoop=1;strokeColor=#F08705;strokeWidth=3;fontFamily=Helvetica;fontSize=14;fontColor=#FFFFFF;spacing=5;entryX=0;entryY=1;entryDx=0;entryDy=0;exitX=0.5;exitY=0;exitDx=0;exitDy=0;" edge="1" parent="1" target="173">
                    <mxGeometry relative="1" as="geometry">
                        <mxPoint x="1305" y="322.0000000000002" as="targetPoint"/>
                        <mxPoint x="1232" y="674.9999999999998" as="sourcePoint"/>
                    </mxGeometry>
                </mxCell>
            </root>
        </mxGraphModel>
    </diagram>
</mxfile>